<svg width="86" height="87" viewBox="0 0 86 87" fill="none" xmlns="http://www.w3.org/2000/svg">
<path d="M14.4203 86.1075C12.7314 86.1075 11.2699 85.1332 10.0357 83.1845C8.80156 81.3007 7.92465 78.2153 7.405 73.9282C7.34004 73.6034 7.30757 73.2137 7.30757 72.759C7.30757 72.2394 7.30757 71.7197 7.30757 71.2001C7.30757 69.0565 7.43748 66.3608 7.6973 63.113C7.95713 59.8003 8.28191 56.1627 8.67165 52.2004C9.06138 48.2381 9.41864 44.1783 9.74342 40.0211C10.1332 35.799 10.4579 31.6742 10.7178 27.647C10.9776 23.6197 11.1075 19.9497 11.1075 16.6369C11.1075 12.5447 10.8477 9.2319 10.328 6.69861C9.80838 4.16532 8.86651 2.89868 7.50244 2.89868C6.65801 2.89868 5.81358 3.38585 4.96915 4.36019C4.18967 5.26957 3.47515 6.30887 2.82559 7.47808C2.24099 8.58234 1.75382 9.49172 1.36408 10.2062C1.0393 10.8558 0.84443 10.9532 0.779474 10.4985C0.714518 10.2387 0.649561 10.0114 0.584605 9.8165C0.584605 9.55668 0.584605 9.29685 0.584605 9.03703C0.584605 7.80286 0.876908 6.50374 1.46151 5.13966C2.04612 3.77558 2.85807 2.63885 3.89737 1.72946C4.93667 0.755122 6.10588 0.267952 7.405 0.267952C7.66483 0.267952 7.89217 0.30043 8.08704 0.365385C8.28191 0.365385 8.47678 0.397862 8.67165 0.462818C11.2049 1.11238 12.9263 3.19098 13.8357 6.69861C14.745 10.2062 15.1997 14.4609 15.1997 19.4625C15.1997 23.2299 15.0049 27.2248 14.6151 31.4469C14.2904 35.6691 13.9006 39.9237 13.4459 44.2108C13.0562 48.4329 12.6664 52.4602 12.2767 56.2926C11.9519 60.125 11.7895 63.5028 11.7895 66.4258C11.7895 67.2702 11.7895 68.0822 11.7895 68.8616C11.8545 69.5762 11.9195 70.2582 11.9844 70.9078C12.5041 75 13.2186 77.8581 14.128 79.482C15.0373 81.1708 16.0766 82.0153 17.2459 82.0153C18.545 82.0153 19.8766 81.3007 21.2407 79.8717C22.6697 78.4427 24.0663 76.6564 25.4303 74.5128C26.7944 72.3693 28.0286 70.2257 29.1328 68.0822C30.6268 65.2891 31.9909 62.0088 33.2251 58.2413C34.4592 54.4739 35.5635 50.6414 36.5378 46.7441C37.5771 42.8467 38.3891 39.2741 38.9737 36.0263C38.3241 34.9221 37.9344 33.7853 37.8045 32.6161C37.6746 31.4469 37.6096 29.9529 37.6096 28.1341C37.6096 26.1855 37.9669 24.659 38.6814 23.5547C39.3959 22.4505 40.1429 21.8983 40.9224 21.8983C42.0916 21.8983 42.8711 22.8727 43.2608 24.8214C43.9753 28.0692 44.6898 31.5119 45.4043 35.1494C46.1189 38.722 46.8983 42.2296 47.7428 45.6723C48.6522 49.115 49.6915 52.2978 50.8607 55.2209C53.264 61.0019 55.4726 65.1591 57.4862 67.6924C59.4998 70.1608 61.3511 71.3949 63.0399 71.3949C64.7938 71.3949 66.3202 70.2907 67.6193 68.0822C68.9834 65.8087 70.1202 62.8532 71.0295 59.2157C71.9389 55.5132 72.621 51.5184 73.0757 47.2312C73.5304 42.8792 73.7577 38.6246 73.7577 34.4674C73.7577 31.0247 73.5953 27.8094 73.2705 24.8214C73.0107 21.8334 72.5235 19.3975 71.809 17.5138C71.5492 16.7343 71.3543 15.9224 71.2244 15.078C71.0945 14.2335 71.0295 13.454 71.0295 12.7395C71.0295 11.8301 71.127 11.0507 71.3219 10.4011C71.5817 9.75155 71.9389 9.42677 72.3936 9.42677C72.9133 9.42677 73.4329 9.8165 73.9526 10.596C74.6671 11.5054 75.3167 12.772 75.9013 14.3959C76.5508 15.9549 77.1029 17.3189 77.5576 18.4881C78.0773 19.7873 78.7593 21.3787 79.6038 23.2624C80.4482 25.0812 81.3251 26.7701 82.2345 28.329C83.2088 29.823 84.1507 30.7324 85.0601 31.0572C85.19 31.1221 85.2549 31.252 85.2549 31.4469C85.2549 31.8366 84.9626 32.1614 84.378 32.4212C83.7934 32.6811 83.3712 32.7785 83.1114 32.7135C81.6174 31.999 80.3508 31.252 79.3115 30.4726C78.3371 29.6281 77.2004 28.1017 75.9013 25.8932C75.9662 27.0624 75.9987 28.2641 75.9987 29.4982C75.9987 30.6674 75.9987 31.8366 75.9987 33.0058C75.9987 36.3836 75.8688 39.7613 75.609 43.139C75.4141 46.5167 74.9919 49.9269 74.3423 53.3696C72.9133 60.8396 71.0945 66.166 68.886 69.3488C66.7424 72.5317 64.469 74.1231 62.0656 74.1231C60.1169 74.1231 58.1682 73.2787 56.2195 71.5898C54.3358 69.836 52.582 67.53 50.9581 64.672C49.3342 61.8139 47.9376 58.6311 46.7684 55.1234C45.7291 51.7457 44.8522 48.6603 44.1377 45.8672C43.4232 43.0091 42.8711 40.5083 42.4813 38.3647C41.442 43.0416 40.0779 47.6859 38.3891 52.2978C36.7652 56.9097 34.9464 61.2618 32.9328 65.354C30.9191 69.3813 28.8081 72.9539 26.5995 76.0718C24.456 79.1897 22.3124 81.6255 20.1689 83.3793C18.0903 85.1981 16.1741 86.1075 14.4203 86.1075Z" fill="white"/>
</svg>
