<svg width="145" height="130" viewBox="0 0 145 130" fill="none" xmlns="http://www.w3.org/2000/svg">
<path d="M38.1312 119.543C36.9445 119.543 35.8182 119.405 34.7524 119.131C33.6865 118.845 32.6811 118.433 31.7361 117.895V94.2258H34.8018V116.642C35.3292 116.84 35.8896 116.977 36.483 117.054C37.0874 117.131 37.6368 117.169 38.1312 117.169C39.7026 117.169 40.9387 116.565 41.8398 115.356C42.7518 114.137 43.2078 112.554 43.2078 110.609C43.2078 109.159 43.01 107.961 42.6144 107.016C42.2189 106.071 41.664 105.379 40.9497 104.939C40.2355 104.489 39.4059 104.291 38.4609 104.346C37.9664 104.379 37.5049 104.269 37.0764 104.016C36.6588 103.753 36.2742 103.368 35.9226 102.863C36.505 102.577 37.1203 102.357 37.7686 102.203C38.4169 102.049 38.9883 101.973 39.4828 101.973C40.3838 101.973 41.2464 102.154 42.0705 102.516C42.9056 102.879 43.6473 103.423 44.2956 104.148C44.9549 104.862 45.4769 105.758 45.8615 106.835C46.2461 107.912 46.4384 109.17 46.4384 110.609C46.4384 112.356 46.0867 113.9 45.3835 115.241C44.6912 116.581 43.7188 117.636 42.4661 118.405C41.2244 119.164 39.7795 119.543 38.1312 119.543ZM57.4496 119.543C55.9772 119.543 54.6366 119.202 53.4279 118.521C52.2302 117.84 51.2742 116.84 50.56 115.521C49.8567 114.202 49.5051 112.587 49.5051 110.675C49.5051 109.17 49.7304 107.862 50.1809 106.752C50.6424 105.643 51.2522 104.725 52.0104 104C52.7796 103.275 53.6367 102.736 54.5817 102.385C55.5267 102.022 56.4827 101.841 57.4496 101.841C59.1308 101.841 60.5648 102.236 61.7515 103.027C62.9383 103.808 63.8393 104.868 64.4546 106.209C65.081 107.538 65.3941 109.027 65.3941 110.675C65.3941 112.104 65.1799 113.373 64.7513 114.483C64.3338 115.582 63.7569 116.51 63.0207 117.268C62.2844 118.015 61.4384 118.581 60.4824 118.966C59.5264 119.35 58.5155 119.543 57.4496 119.543ZM57.4496 117.169C58.5155 117.169 59.3945 116.873 60.0868 116.279C60.7791 115.686 61.29 114.9 61.6197 113.922C61.9603 112.933 62.1306 111.851 62.1306 110.675C62.1306 109.203 61.9108 107.989 61.4713 107.033C61.0428 106.077 60.4714 105.368 59.7572 104.906C59.0539 104.445 58.2847 104.214 57.4496 104.214C56.6145 104.214 55.8398 104.445 55.1256 104.906C54.4224 105.368 53.851 106.077 53.4114 107.033C52.9829 107.989 52.7686 109.203 52.7686 110.675C52.7686 112.587 53.1752 114.148 53.9883 115.356C54.8014 116.565 55.9552 117.169 57.4496 117.169ZM73.9124 119.543C72.7696 119.543 71.7807 119.339 70.9456 118.933C70.1215 118.515 69.4842 117.955 69.0336 117.252C68.5941 116.548 68.3743 115.752 68.3743 114.862C68.3743 113.752 68.6655 112.834 69.2479 112.109C69.8303 111.373 70.7863 110.78 72.1158 110.329C73.4564 109.879 75.253 109.521 77.5056 109.258C77.4616 109.521 77.3627 109.835 77.2089 110.197C77.0661 110.56 76.8298 110.895 76.5002 111.203C76.1705 111.51 75.7145 111.708 75.1321 111.796C74.1652 111.95 73.4289 112.175 72.9235 112.472C72.429 112.769 72.0884 113.109 71.9016 113.494C71.7258 113.867 71.6379 114.257 71.6379 114.664C71.6379 115.334 71.8796 115.922 72.3631 116.428C72.8466 116.922 73.5059 117.169 74.341 117.169C75.0882 117.169 75.8409 116.983 76.5991 116.609C77.3572 116.235 78.055 115.631 78.6923 114.796V108.631C78.6923 107.324 78.3737 106.263 77.7363 105.45C77.11 104.626 76.0441 104.214 74.5388 104.214C73.9454 104.214 73.3575 104.275 72.7751 104.395C72.1928 104.516 71.506 104.72 70.7148 105.005L69.9567 102.962C71.0335 102.5 71.984 102.198 72.8081 102.055C73.6322 101.912 74.4069 101.841 75.1321 101.841C77.2419 101.841 78.8791 102.456 80.0439 103.687C81.2086 104.906 81.791 106.632 81.791 108.862V113.576C81.791 114.895 81.8404 116.021 81.9393 116.955C82.0492 117.878 82.1756 118.631 82.3184 119.213H80.0768C79.7692 119.026 79.5274 118.785 79.3516 118.488C79.1758 118.191 79.022 117.873 78.8901 117.532L78.8571 116.939L78.4945 117.532C77.6594 118.367 76.8847 118.911 76.1705 119.164C75.4563 119.416 74.7036 119.543 73.9124 119.543ZM87.1097 119.213V107.939C87.1097 106.928 87.0657 105.906 86.9778 104.873C86.9009 103.841 86.769 102.94 86.5822 102.17H88.8568C89.2084 102.533 89.4557 102.934 89.5985 103.374C89.7523 103.802 89.8787 104.28 89.9776 104.808V105.401L90.2413 104.808C90.6699 103.961 91.2852 103.275 92.0873 102.747C92.8895 102.209 93.7356 101.94 94.6256 101.94C94.8784 101.94 95.1366 101.962 95.4003 102.006C95.664 102.049 95.9442 102.115 96.2409 102.203L95.8453 104.775C95.5047 104.687 95.2025 104.632 94.9388 104.61C94.6861 104.588 94.4608 104.577 94.263 104.577C93.5817 104.577 92.917 104.764 92.2686 105.137C91.6203 105.511 91.0874 106.104 90.6699 106.917C90.2523 107.73 90.0435 108.796 90.0435 110.115V119.213H87.1097ZM106.052 119.543C104.514 119.543 103.201 119.153 102.113 118.373C101.036 117.581 100.212 116.51 99.6404 115.158C99.08 113.807 98.7998 112.291 98.7998 110.609C98.7998 109.291 99.0086 108.104 99.4261 107.049C99.8547 105.983 100.432 105.071 101.157 104.313C101.882 103.555 102.701 102.978 103.613 102.582C104.525 102.176 105.47 101.973 106.448 101.973C106.942 101.973 107.464 102.011 108.013 102.088C108.574 102.165 109.151 102.313 109.744 102.533C109.447 103.071 109.052 103.511 108.557 103.852C108.063 104.192 107.426 104.357 106.645 104.346C105.887 104.324 105.156 104.527 104.453 104.956C103.761 105.373 103.19 106.049 102.739 106.983C102.289 107.906 102.063 109.115 102.063 110.609C102.063 111.884 102.234 113.016 102.574 114.005C102.926 114.994 103.431 115.768 104.091 116.329C104.761 116.889 105.58 117.169 106.547 117.169C107.305 117.169 108.046 116.977 108.772 116.592C109.497 116.197 110.195 115.587 110.865 114.763V94.2258H113.931V113.576C113.931 114.895 113.98 116.021 114.079 116.955C114.178 117.878 114.293 118.631 114.425 119.213H112.216C111.953 118.982 111.733 118.741 111.557 118.488C111.392 118.224 111.228 117.873 111.063 117.433L110.997 116.906L110.733 117.466C110.063 118.235 109.283 118.774 108.393 119.081C107.513 119.389 106.733 119.543 106.052 119.543Z" fill="white"/>
<path d="M14.4203 96.1075C12.7314 96.1075 11.2699 95.1332 10.0357 93.1845C8.80156 91.3007 7.92465 88.2153 7.405 83.9282C7.34004 83.6034 7.30757 83.2137 7.30757 82.759C7.30757 82.2394 7.30757 81.7197 7.30757 81.2001C7.30757 79.0565 7.43748 76.3608 7.6973 73.113C7.95713 69.8003 8.28191 66.1627 8.67165 62.2004C9.06138 58.2381 9.41864 54.1783 9.74342 50.0211C10.1332 45.799 10.4579 41.6742 10.7178 37.647C10.9776 33.6197 11.1075 29.9497 11.1075 26.6369C11.1075 22.5447 10.8477 19.2319 10.328 16.6986C9.80838 14.1653 8.86651 12.8987 7.50244 12.8987C6.65801 12.8987 5.81358 13.3858 4.96915 14.3602C4.18967 15.2696 3.47515 16.3089 2.82559 17.4781C2.24099 18.5823 1.75382 19.4917 1.36408 20.2062C1.0393 20.8558 0.84443 20.9532 0.779474 20.4985C0.714518 20.2387 0.649561 20.0114 0.584605 19.8165C0.584605 19.5567 0.584605 19.2969 0.584605 19.037C0.584605 17.8029 0.876908 16.5037 1.46151 15.1397C2.04612 13.7756 2.85807 12.6388 3.89737 11.7295C4.93667 10.7551 6.10588 10.268 7.405 10.268C7.66483 10.268 7.89217 10.3004 8.08704 10.3654C8.28191 10.3654 8.47678 10.3979 8.67165 10.4628C11.2049 11.1124 12.9263 13.191 13.8357 16.6986C14.745 20.2062 15.1997 24.4609 15.1997 29.4625C15.1997 33.2299 15.0049 37.2248 14.6151 41.4469C14.2904 45.6691 13.9006 49.9237 13.4459 54.2108C13.0562 58.4329 12.6664 62.4602 12.2767 66.2926C11.9519 70.125 11.7895 73.5028 11.7895 76.4258C11.7895 77.2702 11.7895 78.0822 11.7895 78.8616C11.8545 79.5762 11.9195 80.2582 11.9844 80.9078C12.5041 85 13.2186 87.8581 14.128 89.482C15.0373 91.1708 16.0766 92.0153 17.2459 92.0153C18.545 92.0153 19.8766 91.3007 21.2407 89.8717C22.6697 88.4427 24.0663 86.6564 25.4303 84.5128C26.7944 82.3693 28.0286 80.2257 29.1328 78.0822C30.6268 75.2891 31.9909 72.0088 33.2251 68.2413C34.4592 64.4739 35.5635 60.6414 36.5378 56.7441C37.5771 52.8467 38.3891 49.2741 38.9737 46.0263C38.3241 44.9221 37.9344 43.7853 37.8045 42.6161C37.6746 41.4469 37.6096 39.9529 37.6096 38.1341C37.6096 36.1855 37.9669 34.659 38.6814 33.5547C39.3959 32.4505 40.1429 31.8983 40.9224 31.8983C42.0916 31.8983 42.8711 32.8727 43.2608 34.8214C43.9753 38.0692 44.6898 41.5119 45.4043 45.1494C46.1189 48.722 46.8983 52.2296 47.7428 55.6723C48.6522 59.115 49.6915 62.2978 50.8607 65.2209C53.264 71.0019 55.4726 75.1591 57.4862 77.6924C59.4998 80.1608 61.3511 81.3949 63.0399 81.3949C64.7938 81.3949 66.3202 80.2907 67.6193 78.0822C68.9834 75.8087 70.1202 72.8532 71.0295 69.2157C71.9389 65.5132 72.621 61.5184 73.0757 57.2312C73.5304 52.8792 73.7577 48.6246 73.7577 44.4674C73.7577 41.0247 73.5953 37.8094 73.2705 34.8214C73.0107 31.8334 72.5235 29.3975 71.809 27.5138C71.5492 26.7343 71.3543 25.9224 71.2244 25.078C71.0945 24.2335 71.0295 23.454 71.0295 22.7395C71.0295 21.8301 71.127 21.0507 71.3219 20.4011C71.5817 19.7515 71.9389 19.4268 72.3936 19.4268C72.9133 19.4268 73.4329 19.8165 73.9526 20.596C74.6671 21.5054 75.3167 22.772 75.9013 24.3959C76.5508 25.9549 77.1029 27.3189 77.5576 28.4881C78.0773 29.7873 78.7593 31.3787 79.6038 33.2624C80.4482 35.0812 81.3251 36.7701 82.2345 38.329C83.2088 39.823 84.1507 40.7324 85.0601 41.0572C85.19 41.1221 85.2549 41.252 85.2549 41.4469C85.2549 41.8366 84.9626 42.1614 84.378 42.4212C83.7934 42.6811 83.3712 42.7785 83.1114 42.7135C81.6174 41.999 80.3508 41.252 79.3115 40.4726C78.3371 39.6281 77.2004 38.1017 75.9013 35.8932C75.9662 37.0624 75.9987 38.2641 75.9987 39.4982C75.9987 40.6674 75.9987 41.8366 75.9987 43.0058C75.9987 46.3836 75.8688 49.7613 75.609 53.139C75.4141 56.5167 74.9919 59.9269 74.3423 63.3696C72.9133 70.8396 71.0945 76.166 68.886 79.3488C66.7424 82.5317 64.469 84.1231 62.0656 84.1231C60.1169 84.1231 58.1682 83.2787 56.2195 81.5898C54.3358 79.836 52.582 77.53 50.9581 74.672C49.3342 71.8139 47.9376 68.6311 46.7684 65.1234C45.7291 61.7457 44.8522 58.6603 44.1377 55.8672C43.4232 53.0091 42.8711 50.5083 42.4813 48.3647C41.442 53.0416 40.0779 57.6859 38.3891 62.2978C36.7652 66.9097 34.9464 71.2618 32.9328 75.354C30.9191 79.3813 28.8081 82.9539 26.5995 86.0718C24.456 89.1897 22.3124 91.6255 20.1689 93.3793C18.0903 95.1981 16.1741 96.1075 14.4203 96.1075ZM91.168 52.457C90.5834 52.457 90.1612 52.1647 89.9013 51.5801C89.7065 50.9305 89.609 50.4758 89.609 50.216C89.609 49.1767 89.9013 48.2023 90.4859 47.293C91.1355 46.3186 91.85 45.799 92.6295 45.734H92.9218C93.7013 45.734 94.2209 45.9289 94.4807 46.3186C94.8055 46.6434 94.9679 47.0656 94.9679 47.5853C94.9679 48.5596 94.5457 49.6314 93.7013 50.8006C92.8568 51.9048 92.0124 52.457 91.168 52.457ZM86.1988 87.3384C83.9903 87.3384 82.4963 86.494 81.7169 84.8051C80.9374 83.1163 80.5477 81.1676 80.5477 78.9591C80.5477 76.7506 80.775 74.4446 81.2297 72.0412C81.7493 69.5729 82.3015 67.3319 82.8861 65.3183C83.5356 63.3046 84.0228 61.8756 84.3476 61.0312C85.0621 59.5372 85.7766 58.2705 86.4911 57.2312C87.2057 56.127 87.9851 55.5749 88.8296 55.5749C89.4142 55.5749 89.8364 55.8022 90.0962 56.2569C90.421 56.6466 90.5834 57.1663 90.5834 57.8159C90.5834 59.115 90.2261 60.4466 89.5116 61.8107C88.7971 63.1098 88.1475 64.3439 87.5629 65.5132C86.2638 68.1764 85.2245 70.5473 84.445 72.6259C83.7305 74.7045 83.3732 77.3027 83.3732 80.4206C83.3732 82.4342 83.5681 83.8957 83.9578 84.8051C84.4125 85.7145 85.0296 86.1692 85.8091 86.1692C86.8484 86.1692 88.0501 85.5846 89.4142 84.4154C90.7782 83.1812 92.1748 81.5573 93.6038 79.5437C95.0329 77.53 96.2995 75.354 97.4038 73.0156C98.1183 71.5216 98.6704 70.7746 99.0602 70.7746C99.32 70.7746 99.4499 71.0344 99.4499 71.5541C99.4499 72.2686 99.1576 73.3079 98.573 74.672C98.0533 75.9711 97.4038 77.3027 96.6243 78.6668C95.9098 80.0309 95.2277 81.1026 94.5782 81.8821C93.4739 83.3111 92.2073 84.5778 90.7782 85.682C89.3492 86.7863 87.8227 87.3384 86.1988 87.3384ZM99.0662 88.3128C97.8321 88.3128 96.9877 87.9555 96.533 87.241C96.2731 86.8513 96.1432 86.429 96.1432 85.9743C96.1432 85.4547 96.3706 84.8376 96.8253 84.1231C97.28 83.4086 98.0919 82.759 99.2611 82.1744C99.391 82.1095 99.8782 81.8171 100.723 81.2975C101.632 80.7779 102.184 80.4855 102.379 80.4206C101.989 78.9916 101.307 77.5625 100.333 76.1335C99.3585 74.6395 98.4816 72.9506 97.7022 71.0669C96.9227 69.1832 96.5979 66.8448 96.7278 64.0516C96.8577 61.3884 97.5723 59.0825 98.8714 57.1338C100.171 55.1851 101.827 53.5937 103.841 52.3595C105.919 51.1254 108.063 50.2809 110.271 49.8262C110.791 49.6963 111.343 49.5989 111.928 49.5339C112.512 49.469 113.097 49.4365 113.681 49.4365C115.305 49.4365 116.734 49.6314 117.968 50.0211C119.268 50.4109 120.372 51.0604 121.281 51.9698C122.256 52.8792 122.743 53.886 122.743 54.9903C122.743 55.7048 122.515 56.4193 122.061 57.1338C121.931 57.3936 121.736 57.6535 121.476 57.9133C121.216 58.1731 120.892 58.303 120.502 58.303C120.242 58.303 120.112 58.1082 120.112 57.7184C120.112 57.3936 120.177 56.9714 120.307 56.4518C120.502 55.9321 120.632 55.6073 120.697 55.4774C120.762 55.3475 120.794 55.1202 120.794 54.7954C120.794 54.0809 120.599 53.4963 120.209 53.0416C119.755 52.457 119.04 52.0997 118.066 51.9698C117.157 51.8399 116.312 51.7749 115.533 51.7749C113.259 51.7749 111.018 52.392 108.81 53.6262C106.601 54.8603 104.652 56.4518 102.964 58.4005C101.34 60.2842 100.203 62.2978 99.5534 64.4414C99.3585 65.026 99.2286 65.6106 99.1637 66.1952C99.0987 66.7148 99.0662 67.2345 99.0662 67.7541C99.0662 70.0276 99.5859 72.2036 100.625 74.2822C101.664 76.3608 102.574 78.277 103.353 80.0309C105.172 79.0565 106.796 78.3745 108.225 77.9847C108.42 77.9198 108.582 77.8873 108.712 77.8873C108.907 77.8873 109.037 77.8873 109.102 77.8873C109.427 77.8873 109.589 77.9847 109.589 78.1796C109.589 78.5044 109.167 78.8292 108.322 79.1539C108.128 79.2189 107.64 79.4138 106.861 79.7386C106.082 80.0633 105.14 80.518 104.035 81.1026C104.36 81.9471 104.523 82.759 104.523 83.5385C104.523 84.318 104.328 85.065 103.938 85.7795C103.548 86.494 102.866 87.0786 101.892 87.5333C100.917 88.0529 99.9756 88.3128 99.0662 88.3128ZM99.3585 85.682C99.4235 86.1367 99.7158 86.2342 100.235 85.9743C100.82 85.7145 101.405 85.2598 101.989 84.6103C102.574 83.9607 102.866 83.3111 102.866 82.6616C102.866 82.5317 102.866 82.4018 102.866 82.2718C102.931 82.077 102.931 81.8821 102.866 81.6872C101.892 82.2718 101.047 82.9214 100.333 83.6359C99.6184 84.2855 99.2936 84.9675 99.3585 85.682ZM131.625 102.051C130.131 102.051 128.995 101.434 128.215 100.2C127.501 98.9656 127.143 97.5365 127.143 95.9126C127.143 93.9639 127.501 91.723 128.215 89.1897C128.995 86.7213 129.936 84.188 131.041 81.5898C132.145 78.9266 133.282 76.3608 134.451 73.8925C135.685 71.4242 136.757 69.2157 137.666 67.267C138.641 65.3183 139.29 63.8243 139.615 62.785C140.005 61.6158 140.199 60.7389 140.199 60.1543C140.199 59.5047 139.972 59.1799 139.517 59.1799C138.998 59.1799 138.218 59.6021 137.179 60.4466C136.205 61.226 135.23 62.103 134.256 63.0773C133.347 64.0516 132.697 64.7662 132.307 65.2209C130.229 67.5593 128.345 70.1575 126.656 73.0156C125.032 75.8737 124.025 78.3095 123.636 80.3232C123.571 80.6479 123.441 81.2325 123.246 82.077C123.116 82.9214 122.824 83.3111 122.369 83.2462C121.719 83.1163 121.265 82.7265 121.005 82.077C120.81 81.3625 120.68 80.7129 120.615 80.1283C120.615 79.8035 120.583 79.4787 120.518 79.1539C120.518 78.7642 120.518 78.3745 120.518 77.9847C120.518 74.8019 120.875 71.1968 121.59 67.1695C122.304 63.1423 123.213 59.0175 124.318 54.7954C125.487 50.5732 126.721 46.6434 128.02 43.0058C129.319 39.3683 130.553 36.3478 131.723 33.9445C132.307 32.7753 132.957 31.671 133.671 30.6317C134.386 29.5274 135.1 28.9753 135.815 28.9753C136.27 28.9753 136.659 29.2027 136.984 29.6574C137.374 30.1121 137.569 30.5018 137.569 30.8266C137.569 31.0864 137.114 32.1257 136.205 33.9445C135.36 35.6983 134.256 38.0367 132.892 40.9597C131.528 43.8178 130.131 47.0981 128.702 50.8006C127.338 54.5031 126.104 58.4654 125 62.6876C123.895 66.9097 123.148 71.1968 122.759 75.5489C122.759 75.6138 122.726 75.9386 122.661 76.5232C122.596 77.1078 122.531 77.6924 122.466 78.277C122.466 78.8616 122.466 79.1539 122.466 79.1539V79.0565H122.564C122.694 78.277 122.921 77.53 123.246 76.8155C123.636 76.101 124.025 75.419 124.415 74.7694C126.364 70.872 128.865 67.1371 131.918 63.5645C133.412 61.8756 134.971 60.4141 136.594 59.1799C138.218 57.8808 139.907 57.2312 141.661 57.2312C142.376 57.2312 142.993 57.4261 143.512 57.8159C144.032 58.2056 144.292 58.9526 144.292 60.0568C144.292 61.4859 143.805 63.1747 142.83 65.1234C141.921 67.0071 140.784 68.9883 139.42 71.0669C138.121 73.0805 136.919 74.9968 135.815 76.8155C134.321 79.3488 132.957 82.0445 131.723 84.9026C130.553 87.6957 129.969 90.6187 129.969 93.6716C129.969 94.581 130.034 95.5554 130.164 96.5947C130.359 97.634 130.651 98.5109 131.041 99.2254C131.495 100.005 132.112 100.395 132.892 100.395C133.412 100.395 133.899 100.232 134.353 99.9074C134.873 99.6476 135.295 99.3878 135.62 99.128C136.205 98.5434 136.594 98.2511 136.789 98.2511C136.984 98.2511 137.082 98.3485 137.082 98.5434C137.082 98.9331 136.919 99.2904 136.594 99.6151C136.27 100.005 135.945 100.297 135.62 100.492C135.165 100.882 134.548 101.239 133.769 101.564C133.054 101.889 132.34 102.051 131.625 102.051Z" fill="white"/>
</svg>
